HIERARCHY
ROOT Hips
{
	OFFSET 0.000000 0.000000 0.000000
	CHANNELS 6 Xposition Yposition Zposition Zrotation Yrotation Xrotation 
	JOINT LHipJoint
	{
		OFFSET 0.000000 0.000000 0.000000
		CHANNELS 3 Zrotation Yrotation Xrotation
		JOINT LeftUpLeg
		{
			OFFSET 1.363060 -1.794630 0.839290
			CHANNELS 3 Zrotation Yrotation Xrotation
			JOINT LeftLeg
			{
				OFFSET 2.448110 -6.726130 0.000000
				CHANNELS 3 Zrotation Yrotation Xrotation
				JOINT LeftFoot
				{
					OFFSET 2.562200 -7.039590 0.000000
					CHANNELS 3 Zrotation Yrotation Xrotation
					JOINT LeftToeBase
					{
						OFFSET 0.157640 -0.433110 2.322550
						CHANNELS 3 Zrotation Yrotation Xrotation
						End Site
						{
							OFFSET 0.000000 0.000000 0.000000
						}
					}
				}
			}
		}
	}
	JOINT RHipJoint
	{
		OFFSET 0.000000 0.000000 0.000000
		CHANNELS 3 Zrotation Yrotation Xrotation
		JOINT RightUpLeg
		{
			OFFSET -1.305520 -1.794630 0.839290
			CHANNELS 3 Zrotation Yrotation Xrotation
			JOINT RightLeg
			{
				OFFSET -2.542530 -6.985550 0.000000
				CHANNELS 3 Zrotation Yrotation Xrotation
				JOINT RightFoot
				{
					OFFSET -2.568260 -7.056230 0.000000
					CHANNELS 3 Zrotation Yrotation Xrotation
					JOINT RightToeBase
					{
						OFFSET -0.164730 -0.452590 2.363150
						CHANNELS 3 Zrotation Yrotation Xrotation
						End Site
						{
							OFFSET 0.000000 0.000000 0.000000
						}
					}
				}
			}
		}
	}
	JOINT LowerBack
	{
		OFFSET 0.000000 0.000000 0.000000
		CHANNELS 3 Zrotation Yrotation Xrotation
		JOINT Spine
		{
			OFFSET 0.028270 2.035590 -0.193380
			CHANNELS 3 Zrotation Yrotation Xrotation
			JOINT Spine1
			{
				OFFSET 0.056720 2.048850 -0.042750
				CHANNELS 3 Zrotation Yrotation Xrotation
				JOINT Neck
				{
					OFFSET 0.000000 0.000000 0.000000
					CHANNELS 3 Zrotation Yrotation Xrotation
					JOINT Neck1
					{
						OFFSET -0.054170 1.746240 0.172020
						CHANNELS 3 Zrotation Yrotation Xrotation
						JOINT Head
						{
							OFFSET 0.104070 1.761360 -0.123970
							CHANNELS 3 Zrotation Yrotation Xrotation
							End Site
							{
								OFFSET 0.000000 0.000000 0.000000
							}
						}
					}
				}
				JOINT LeftShoulder
				{
					OFFSET 0.000000 0.000000 0.000000
					CHANNELS 3 Zrotation Yrotation Xrotation
					JOINT LeftArm
					{
						OFFSET 3.362410 1.200890 -0.311210
						CHANNELS 3 Zrotation Yrotation Xrotation
						JOINT LeftForeArm
						{
							OFFSET 4.983000 -0.000000 -0.000000
							CHANNELS 3 Zrotation Yrotation Xrotation
							JOINT LeftHand
							{
								OFFSET 3.483560 -0.000000 -0.000000
								CHANNELS 3 Zrotation Yrotation Xrotation
								JOINT LeftFingerBase
								{
									OFFSET 0.000000 0.000000 0.000000
									CHANNELS 3 Zrotation Yrotation Xrotation
									JOINT LeftHandIndex1
									{
										OFFSET 0.715260 -0.000000 -0.000000
										CHANNELS 3 Zrotation Yrotation Xrotation
										End Site
										{
											OFFSET 0.000000 0.000000 0.000000
										}
									}
								}
								JOINT LThumb
								{
									OFFSET 0.000000 0.000000 0.000000
									CHANNELS 3 Zrotation Yrotation Xrotation
									End Site
									{
										OFFSET 0.000000 0.000000 0.000000
									}
								}
							}
						}
					}
				}
				JOINT RightShoulder
				{
					OFFSET 0.000000 0.000000 0.000000
					CHANNELS 3 Zrotation Yrotation Xrotation
					JOINT RightArm
					{
						OFFSET -3.136600 1.374050 -0.404650
						CHANNELS 3 Zrotation Yrotation Xrotation
						JOINT RightForeArm
						{
							OFFSET -5.241900 -0.000000 -0.000000
							CHANNELS 3 Zrotation Yrotation Xrotation
							JOINT RightHand
							{
								OFFSET -3.444170 -0.000000 -0.000000
								CHANNELS 3 Zrotation Yrotation Xrotation
								JOINT RightFingerBase
								{
									OFFSET 0.000000 0.000000 0.000000
									CHANNELS 3 Zrotation Yrotation Xrotation
									JOINT RightHandIndex1
									{
										OFFSET -0.622530 -0.000000 -0.000000
										CHANNELS 3 Zrotation Yrotation Xrotation
										End Site
										{
											OFFSET 0.000000 0.000000 0.000000
										}
									}
								}
								JOINT RThumb
								{
									OFFSET 0.000000 0.000000 0.000000
									CHANNELS 3 Zrotation Yrotation Xrotation
									End Site
									{
										OFFSET 0.000000 0.000000 0.000000
									}
								}
							}
						}
					}
				}
			}
		}
	}
}
MOTION
Frames: 8
Frame Time: 0.008333
4.000462 17.196359 18.746286 175.929290 -63.921428 -169.402564 -5.044797 -1.907489 0.860555 -25.500229 11.973106 -28.248767 3.033305 11.766826 36.625930 -1.368502 7.326525 -9.900790 0.108700 -2.126200 -5.854500 2.224308 3.372415 -4.862423 -2.299818 14.303843 -55.746097 -4.418421 -14.950402 40.817125 -4.658813 19.394018 -4.809504 -3.430000 11.360500 -33.505600 -15.243131 3.609672 13.355307 -0.987574 2.565403 -2.731696 -7.203300 0.490098 3.792777 3.019334 8.002083 -3.673054 6.904625 11.318058 -0.087392 2.560400 5.522100 -2.192800 7.110241 2.351517 0.040427 -71.367664 28.342704 94.063033 41.635994 -54.322438 -21.330143 0.326481 -1.323603 -16.726801 8.778475 -8.855815 -1.161100 -7.125000 0.000000 0.000000 -13.049800 22.464400 7.258000 -13.968623 -1.088907 5.636537 107.390662 -31.787103 61.623786 -45.801792 54.486560 -20.488025 -0.230133 -0.094038 22.345316 -3.901686 9.621231 -0.634700 7.125000 0.000000 0.000000 16.459600 -20.326500 10.138200 
3.967981 17.201477 18.684665 176.703861 -64.799696 -169.456226 -5.031273 -1.922499 0.761148 -24.739933 11.348846 -28.429343 3.078107 11.867900 36.870543 -1.143211 6.700114 -9.713764 0.111500 -2.152800 -5.928200 2.374815 3.277890 -4.641306 -1.928422 14.917291 -54.355568 -4.845062 -15.318463 42.519447 -4.580432 21.358310 -2.957834 -3.166900 10.960500 -32.146800 -14.575009 3.465070 12.990134 -0.939972 2.528184 -2.776332 -7.355251 0.523466 3.794426 3.188429 8.111567 -3.728773 6.551971 11.483390 -0.214649 2.373400 5.610000 -2.199100 7.128537 2.371281 0.029786 -71.204644 28.329969 94.282830 41.619334 -54.308522 -21.325002 0.327732 -1.328036 -16.313634 8.802029 -8.736394 -1.143700 -7.125000 0.000000 0.000000 -13.049800 22.586600 7.220500 -13.948675 -1.078879 5.641621 107.529255 -31.832252 61.444616 -45.825365 54.518865 -20.497444 -0.228135 -0.093770 22.051596 -3.734429 9.624182 -0.606300 7.125000 0.000000 0.000000 16.574700 -20.329100 10.214300 
3.935186 17.200641 18.621478 177.455031 -65.731481 -169.511646 -5.015213 -1.936298 0.660776 -24.019825 10.764180 -28.633088 3.128952 11.972711 37.129748 -0.908948 6.057861 -9.566913 0.111800 -2.156100 -5.937200 2.525280 3.183255 -4.423664 -1.545467 15.571697 -52.939347 -5.240523 -15.641043 44.150584 -4.390401 23.095399 -0.777816 -2.836800 10.426000 -30.367500 -13.914186 3.334407 12.628333 -0.888858 2.505466 -2.815955 -7.485730 0.562288 3.812112 3.346512 8.220726 -3.789061 6.177631 11.644018 -0.322051 2.179700 5.697100 -2.194100 7.150082 2.390535 0.021064 -71.067020 28.294055 94.490355 41.607439 -54.296760 -21.320656 0.329210 -1.331596 -15.862370 8.821531 -8.603810 -1.123600 -7.125000 0.000000 0.000000 -13.054900 22.721100 7.182200 -13.927055 -1.070684 5.645625 107.663598 -31.862933 61.245240 -45.835548 54.543350 -20.499876 -0.225528 -0.096282 21.879867 -3.709391 9.569911 -0.599300 7.125000 0.000000 0.000000 16.595200 -20.381000 10.207800 
3.902286 17.194584 18.556932 178.133348 -66.736920 -169.511208 -4.997706 -1.950892 0.558921 -23.359075 10.194157 -28.862574 3.186801 12.082040 37.408526 -0.668964 5.409396 -9.473549 0.111000 -2.147800 -5.914300 2.675099 3.090807 -4.213499 -1.176814 16.247820 -51.483635 -5.581884 -15.904691 45.635442 -4.122428 24.515984 1.701107 -2.469100 9.781500 -28.272100 -13.279885 3.208269 12.265444 -0.833452 2.485271 -2.851012 -7.583256 0.599836 3.848629 3.470128 8.326723 -3.852259 5.795774 11.797253 -0.411482 1.990400 5.782000 -2.182800 7.174247 2.408459 0.014480 -70.969554 28.233193 94.674561 41.594377 -54.284561 -21.312166 0.330777 -1.333892 -15.370374 8.832410 -8.459198 -1.100600 -7.125000 0.000000 0.000000 -13.068300 22.866500 7.145100 -13.905055 -1.065365 5.646795 107.773624 -31.874451 61.046407 -45.843347 54.563461 -20.502954 -0.221521 -0.101717 21.795797 -3.826004 9.408507 -0.610100 7.125000 0.000000 0.000000 16.526400 -20.530300 10.103300 
3.868760 17.184662 18.491969 178.741813 -67.839225 -169.459860 -4.980797 -1.967265 0.457009 -22.748575 9.627459 -29.109783 3.251252 12.194709 37.704281 -0.419951 4.741442 -9.414862 0.107300 -2.112300 -5.816100 2.827377 3.001629 -4.012258 -0.819964 16.921169 -49.965699 -5.841871 -16.095095 46.892139 -3.815181 25.586661 4.497899 -2.056200 8.982100 -25.739300 -12.645183 3.083753 11.913384 -0.775151 2.462133 -2.884079 -7.669375 0.635652 3.890453 3.564636 8.415759 -3.905404 5.414777 11.926985 -0.483541 1.809800 5.856400 -2.168400 7.198713 2.425859 0.008578 -70.888720 28.156578 94.860323 41.578873 -54.270399 -21.300520 0.332472 -1.335631 -14.834629 8.834265 -8.301125 -1.074300 -7.125000 0.000000 0.000000 -13.090400 23.024600 7.109000 -13.883689 -1.060805 5.647644 107.894037 -31.876952 60.805309 -45.838824 54.577702 -20.498780 -0.216525 -0.108331 21.821276 -3.994026 9.192841 -0.625400 7.125000 0.000000 0.000000 16.425900 -20.729900 9.959000 
3.834817 17.172128 18.428050 179.269731 -69.053737 -169.336040 -4.972642 -1.987708 0.358053 -22.183627 9.053352 -29.352846 3.303925 12.290295 37.945792 -0.171037 4.067686 -9.330801 0.103700 -2.077000 -5.718500 2.988349 2.919799 -3.823624 -0.481825 17.565797 -48.363317 -5.979369 -16.189939 47.796667 -3.514364 26.244452 7.631479 -1.603200 7.985400 -22.669700 -11.998025 2.952493 11.571715 -0.714580 2.425271 -2.915735 -7.756897 0.664943 3.936987 3.636551 8.483452 -3.945537 5.037348 12.028593 -0.543250 1.638100 5.917300 -2.154200 7.222667 2.442373 0.003915 -70.835218 28.050861 95.044651 41.548115 -54.245662 -21.275432 0.334129 -1.336420 -14.262552 8.822646 -8.132617 -1.044800 -7.125000 0.000000 0.000000 -13.124200 23.192200 7.076300 -13.863457 -1.055992 5.647647 108.019993 -31.861755 60.534988 -45.821320 54.585273 -20.485708 -0.210870 -0.115491 21.911553 -4.175118 8.944660 -0.639500 7.125000 0.000000 0.000000 16.318500 -20.960300 9.799200 
3.799619 17.158655 18.365071 179.837047 -70.394616 -169.264190 -4.968222 -2.009097 0.260413 -21.609675 8.451109 -29.584767 3.359029 12.384904 38.187952 0.080471 3.387424 -9.261160 0.102800 -2.067500 -5.692300 3.164168 2.841614 -3.643696 -0.105758 18.169913 -46.672915 -6.005940 -16.193868 48.340146 -3.276311 26.542859 10.747336 -1.095500 6.651200 -18.686200 -11.280899 2.811379 11.249986 -0.650977 2.371260 -2.945633 -7.875194 0.689589 3.985465 3.708505 8.524762 -3.964749 4.667822 12.096828 -0.591306 1.473600 5.961200 -2.141600 7.245648 2.459751 0.000477 -70.804171 27.919311 95.226113 41.481114 -54.198758 -21.224005 0.335344 -1.336472 -13.651846 8.798040 -7.957263 -1.013000 -7.125000 0.000000 0.000000 -13.168500 23.365600 7.047500 -13.843652 -1.048585 5.648216 108.160815 -31.829177 60.247920 -45.784185 54.584880 -20.456818 -0.205686 -0.121018 22.052645 -4.271678 8.745757 -0.642100 7.125000 0.000000 0.000000 16.265600 -21.146200 9.693000 
3.763482 17.166489 18.305330 -179.466501 -71.867251 -169.335619 -4.974695 -2.028234 0.169590 -20.993132 7.826276 -29.760196 3.400920 12.462920 38.370383 0.340612 2.676391 -9.152730 0.102600 -2.065700 -5.687300 3.372555 2.767796 -3.470262 0.339432 18.712120 -44.809920 -5.885688 -16.078111 48.401296 -3.116288 26.631087 13.793364 -0.522600 4.632900 -12.864300 -10.479488 2.659040 10.946037 -0.580943 2.299258 -2.973820 -8.018307 0.709368 4.033618 3.790266 8.538260 -3.954853 4.306978 12.130267 -0.631824 1.313100 5.986700 -2.133800 7.269751 2.478248 -0.001326 -70.801073 27.767746 95.404193 41.375241 -54.129351 -21.143859 0.336063 -1.335666 -13.000232 8.755948 -7.776295 -0.978700 -7.125000 0.000000 0.000000 -13.226800 23.543700 7.024500 -13.823084 -1.038099 5.649201 108.309719 -31.779994 59.951019 -45.721556 54.572837 -20.408989 -0.201677 -0.124779 22.238475 -4.291827 8.628691 -0.638000 7.125000 0.000000 0.000000 16.259100 -21.256300 9.646400 
